<svg width="44" height="46" viewBox="0 0 44 46" fill="none" xmlns="http://www.w3.org/2000/svg">
<path d="M43.783 27.3352C43.9147 26.37 43.9844 25.3856 43.9844 24.3848C43.9844 18.3663 41.5099 12.8613 37.4824 8.91314C37.4568 8.88544 37.4304 8.85943 37.4023 8.83509C34.3374 5.86127 30.3863 3.78458 25.9463 3.05697C25.588 1.44984 24.1558 0.245117 22.448 0.245117C20.7384 0.245117 19.305 1.44984 18.9463 3.05655C16.5796 3.44302 14.3103 4.22057 12.1904 5.37535C11.6714 5.65817 11.4792 6.30984 11.7612 6.83016C11.9555 7.1881 12.323 7.39119 12.7028 7.39119C12.8753 7.39119 13.0502 7.34923 13.2126 7.26069C15.0707 6.24857 17.0555 5.55788 19.1254 5.20121C19.6609 6.51461 20.9483 7.4428 22.448 7.4428C23.946 7.4428 25.2317 6.51503 25.7671 5.20163C28.7267 5.71314 31.4412 6.89185 33.7638 8.57073H29.6754C27.4725 8.57073 25.6803 10.3688 25.6803 12.5789C25.6803 14.7874 27.4725 16.5842 29.6754 16.5842C30.6968 16.5842 31.5272 17.42 31.5272 18.4468C31.5272 19.4741 30.6968 20.3095 29.6754 20.3095H29.0565C26.8552 20.3095 25.0643 22.1063 25.0643 24.3152C25.0643 26.5253 26.8552 28.3233 29.0565 28.3233H41.4449C39.6258 37.1773 31.7991 43.8546 22.448 43.8546C18.188 43.8546 14.2449 42.4682 11.0415 40.123H15.1412C17.3442 40.123 19.1364 38.3253 19.1364 36.1148C19.1364 33.9063 17.3442 32.1096 15.1412 32.1096C14.1198 32.1096 13.2894 31.2741 13.2894 30.2469C13.2894 29.2213 14.1198 28.3871 15.1412 28.3871H15.7572C17.9602 28.3871 19.7523 26.5891 19.7523 24.379C19.7523 22.1684 17.9602 20.3704 15.7572 20.3704H3.45737C4.05743 17.4788 5.3104 14.7697 7.16679 12.3901C7.53059 11.9235 7.44835 11.2491 6.98257 10.8841C6.51722 10.519 5.84457 10.6017 5.48035 11.0687C2.48932 14.9036 0.908203 19.5085 0.908203 24.3848C0.908203 30.3648 3.34114 35.7854 7.2654 39.7025C7.3275 39.7831 7.40009 39.8544 7.48234 39.9148C11.3604 43.6796 16.6388 46.0001 22.448 46.0001C33.2783 46.0001 42.2652 37.9347 43.7632 27.474C43.7729 27.4287 43.7792 27.3826 43.783 27.3352ZM3.13637 22.5163H15.7572C16.7798 22.5163 17.6119 23.3517 17.6119 24.379C17.6119 25.4058 16.7798 26.2416 15.7572 26.2416H15.1412C12.9399 26.2416 11.1489 28.038 11.1489 30.2469C11.1489 32.457 12.9399 34.2551 15.1412 34.2551C16.1638 34.2551 16.9959 35.0892 16.9959 36.1148C16.9959 37.1416 16.1638 37.9775 15.1412 37.9775H8.57334C5.15724 34.4661 3.04867 29.6682 3.04867 24.3848C3.04867 23.7562 3.07888 23.1331 3.13637 22.5163ZM22.448 5.29688C21.649 5.29688 20.9995 4.64438 20.9995 3.84249C20.9995 3.04186 21.649 2.39062 22.448 2.39062C23.2448 2.39062 23.8931 3.04186 23.8931 3.84249C23.8931 4.64438 23.2448 5.29688 22.448 5.29688ZM29.0565 26.1774C28.0352 26.1774 27.2047 25.342 27.2047 24.3148C27.2047 23.2896 28.0352 22.455 29.0565 22.455H29.6754C31.8768 22.455 33.6677 20.657 33.6677 18.4468C33.6677 16.2367 31.8768 14.4387 29.6754 14.4387C28.6528 14.4387 27.8207 13.6045 27.8207 12.5789C27.8207 11.5517 28.6528 10.7162 29.6754 10.7162H36.2559C39.7248 14.2515 41.8439 19.0981 41.8439 24.3848C41.8439 24.9891 41.815 25.587 41.7608 26.1774H29.0565Z" fill="white"/>
</svg>
